<svg width="90.000000" height="40.000000" viewBox="0 0 90 40" fill="none" xmlns="http://www.w3.org/2000/svg" xmlns:xlink="http://www.w3.org/1999/xlink">
	<desc>
			Created with Pixso.
	</desc>
	<defs/>
	<path id="lens)" d="M82.3965 10.7026C83.4155 13.6499 83.9253 16.7495 83.9253 20C83.9253 23.2505 83.4155 26.3499 82.3965 29.2976C81.377 32.2451 80.041 34.8899 78.3882 37.2314L82.6855 40C85.0273 37.2727 86.832 34.2148 88.0991 30.8264C89.3662 27.438 90 23.8291 90 20C90 16.1709 89.3662 12.562 88.0991 9.17334C86.832 5.78516 85.0273 2.72705 82.6855 0L78.3882 2.76855C80.041 5.11035 81.377 7.75488 82.3965 10.7026ZM8.67822 32.7686C6.88721 32.741 5.42725 32.5481 4.29785 32.1902C3.1958 31.832 2.31396 31.3362 1.65283 30.7024C1.01953 30.0413 0.578613 29.2561 0.330566 28.3472C0.110352 27.4104 0 26.3635 0 25.2065L0 1.28076L6.15723 0.289062L6.15723 23.9668C6.15723 24.5181 6.19873 25.0137 6.28125 25.4546C6.36377 25.8955 6.51562 26.2673 6.73584 26.5703C6.98389 26.8733 7.32812 27.1211 7.76904 27.314C8.20947 27.5068 8.80176 27.6309 9.5459 27.686L8.67822 32.7686ZM12.042 21.6528Q12.042 18.7603 12.9097 16.6113Q13.8188 14.4214 15.2651 12.9751Q16.1763 12.0645 17.251 11.4321Q17.8828 11.0605 18.5713 10.7852C19.8384 10.2891 21.1333 10.0415 22.4556 10.0415Q25.9512 10.0415 28.3389 11.668L28.3398 11.6685L28.3398 11.6685Q29.1128 12.1953 29.77 12.8926Q32.4561 15.7026 32.4561 21.1982C32.4561 21.5566 32.4424 21.9561 32.4146 22.3965Q32.3735 23.0166 32.332 23.5122L18.3647 23.5122C18.5024 24.7798 19.0947 25.7852 20.1416 26.5288C21.1885 27.2727 22.5933 27.6445 24.3564 27.6445Q26.0508 27.6445 27.6626 27.3555C28.7646 27.135 29.6597 26.8733 30.3486 26.5703L31.1748 31.5703C30.8442 31.7356 30.4038 31.9009 29.8525 32.0662C29.3018 32.2314 28.6816 32.3691 27.9932 32.4792C27.332 32.6172 26.6157 32.7273 25.8442 32.8098C25.0728 32.8926 24.3013 32.9338 23.5303 32.9338C21.5742 32.9338 19.8662 32.6445 18.4058 32.0662C16.9731 31.4875 15.7749 30.7024 14.8105 29.7107C13.874 28.6914 13.1714 27.4932 12.7031 26.1157Q12.042 24.0498 12.042 21.6528ZM67.7817 27.9338C68.9116 27.9338 69.7104 27.8237 70.1787 27.6033C70.647 27.3828 70.8813 26.9558 70.8813 26.3223C70.8813 25.8267 70.5781 25.3994 69.9722 25.0415C69.3662 24.6558 68.4429 24.2285 67.2036 23.7603C66.2393 23.4023 65.3574 23.0303 64.5586 22.6445C63.7871 22.2588 63.126 21.8042 62.5752 21.2808C62.0239 20.73 61.5972 20.0825 61.2939 19.3389C60.9912 18.5952 60.8394 17.6997 60.8394 16.6528Q60.8394 14.8931 61.5923 13.5576Q62.1475 12.5723 63.1123 11.8184Q65.3853 10.0415 69.3521 10.0415C70.6748 10.0415 71.9419 10.1655 73.1538 10.4131C74.3662 10.6338 75.3306 10.8813 76.0469 11.1572L74.9722 15.9502C74.2559 15.7026 73.4707 15.4819 72.6167 15.2891C71.7905 15.0962 70.8535 15 69.8066 15Q67.5991 15 67.0762 15.9385Q66.9141 16.23 66.9141 16.6113C66.9141 16.8594 66.9556 17.0801 67.0381 17.2729C67.1206 17.4653 67.2861 17.6582 67.5342 17.8511C67.7817 18.0166 68.1123 18.2095 68.5259 18.4297C68.9663 18.6226 69.5176 18.8428 70.1787 19.0908C71.5288 19.5869 72.6445 20.0825 73.5259 20.5786C74.4077 21.0469 75.0962 21.5703 75.5923 22.1489C76.1157 22.6997 76.4736 23.3193 76.6665 24.0083Q76.9971 25.0415 76.9971 26.405Q76.9971 28.3447 76.1143 29.7156Q75.5298 30.6228 74.5591 31.281C72.9609 32.3828 70.6885 32.9338 67.7407 32.9338C65.812 32.9338 64.2007 32.7686 62.9058 32.438C61.6382 32.1074 60.7568 31.832 60.2607 31.6116L61.2939 26.6116C62.3408 27.0249 63.4155 27.3555 64.5171 27.6033C65.6191 27.8237 66.7075 27.9338 67.7817 27.9338ZM41.2573 10.5371C39.6045 10.7852 38.2544 11.0605 37.2075 11.3638L37.2075 32.3555L43.3647 32.3555L43.3647 15.5786C43.7505 15.5234 44.1914 15.4819 44.6875 15.4546C45.1831 15.3994 45.6514 15.3721 46.0923 15.3721C47.5249 15.3721 48.5029 15.7852 49.0264 16.6113Q49.8115 17.8511 49.8115 20.8267L49.8115 32.3555L55.9688 32.3555L55.9688 20.0825C55.9688 18.5952 55.8174 17.2451 55.5142 16.0332C55.2109 14.8208 54.7017 13.7739 53.9854 12.8926Q52.9106 11.5703 51.0513 10.8677Q49.2329 10.124 46.4644 10.124Q43.7368 10.124 41.2573 10.5371ZM26.5054 19.2974C26.478 18.7739 26.3813 18.2646 26.2163 17.7686C26.0786 17.2729 25.8442 16.832 25.5137 16.4463C25.2104 16.0605 24.811 15.7437 24.3154 15.4961C23.8472 15.248 23.2544 15.124 22.5386 15.124C21.8496 15.124 21.2573 15.248 20.7612 15.4961C20.2656 15.7163 19.8521 16.019 19.5215 16.4048C19.1909 16.7905 18.9292 17.2451 18.7363 17.7686C18.5713 18.2646 18.4473 18.7739 18.3647 19.2974L26.5054 19.2974Z" fill="#FFFFFF" fill-opacity="1.000000" fill-rule="evenodd"/>
</svg>
