<svg width="29.000000" height="29.000000" viewBox="0 0 29 29" fill="none" xmlns="http://www.w3.org/2000/svg" xmlns:xlink="http://www.w3.org/1999/xlink">
	<desc>
			Created with Pixso.
	</desc>
	<defs>
		<clipPath id="clip319_790">
			<rect id="Telegram" width="29.000000" height="29.000000" fill="white" fill-opacity="0"/>
		</clipPath>
	</defs>
	<g clip-path="url(#clip319_790)">
		<path id="Vector" d="M6.12598 13.1545C11.175 10.9548 14.5417 9.50464 16.2263 8.80396C21.0361 6.80347 22.0356 6.45605 22.687 6.44458C22.8303 6.44189 23.1506 6.47754 23.3582 6.64575C23.5332 6.78809 23.5815 6.97998 23.6045 7.11475C23.6277 7.24976 23.6565 7.55664 23.6335 7.79663C23.3728 10.5352 22.2451 17.1812 21.6714 20.2485C21.4285 21.5464 20.9504 21.9814 20.4878 22.0242C19.4819 22.1167 18.7183 21.3594 17.7441 20.7209C16.2197 19.7217 15.3586 19.0996 13.8789 18.1245C12.1689 16.9978 13.2776 16.3784 14.252 15.3662C14.5071 15.1013 18.9385 11.0706 19.0242 10.7048C19.0349 10.6592 19.0449 10.4888 18.9436 10.3987C18.8423 10.3086 18.6929 10.3396 18.585 10.364C18.4321 10.3987 15.9971 12.0083 11.2795 15.1926C10.5884 15.6672 9.9624 15.8984 9.40137 15.8865C8.78296 15.873 7.59351 15.5366 6.70923 15.2493C5.62451 14.8967 4.76245 14.7102 4.83765 14.1116C4.87671 13.7996 5.30615 13.4807 6.12598 13.1545Z" fill="#FFFFFF" fill-opacity="1.000000" fill-rule="evenodd"/>
	</g>
</svg>
